<?xml version="1.0" encoding="UTF-8" standalone="no"?>
<svg
   width="255.99615"
   height="256.00931"
   version="1.1"
   id="svg10"
   xmlns="http://www.w3.org/2000/svg"
   xmlns:svg="http://www.w3.org/2000/svg">
  <defs
     id="defs14" />
  <path
     d="m 123.97389,252.288 c -4.485,-4.525 -11.297,-8.093 -23.735,-12.432 -16.818002,-5.866 -22.860002,-10.188 -27.696002,-19.812 -1.532,-3.05 -2.79,-6.05 -2.797,-6.67 -0.02,-2.116 -1.122,-2.87 -6.266,-4.3 -7.05,-1.945 -12.632,-5.06 -16.253,-9.072 -1.675,-1.855 -4.963,-7.156 -7.307,-11.78 -2.344,-4.624 -5.334,-9.868 -6.645,-11.652 -4.465,-6.068 -12.975,-10.972 -23.955,-13.798 l -6.035,-1.553 -1.07,-4.686 c -0.59,-2.577 -1.4,-7.893 -1.825,-11.812 -3.007,-28.385 11.548,-52.716 37.833,-63.242 4.31,-1.726 4.9,-2.188 5.388,-4.226 3.814,-15.87 10.774,-28.994 19.694,-37.136 5.985,-5.462 11.576,-8.81 28.713,-17.187 17.137002,-8.377 23.418002,-12.154 30.938002,-18.6 l 5.05,-4.33 4.62,3.928 c 8.84,7.513 13.917,10.5 36.844,21.743 6.262,3.068 13.663,7.146 16.447,9.063 12.458,8.576 21.48,22.297 25.575,38.9 0.648,2.628 1.45,5.126 1.78,5.552 0.33,0.426 2.4,1.425 4.575,2.22 14.482,5.27 28.574,19.04 34.105,33.322 4.796,12.383 5.372,29.368 1.484,43.71 l -0.748,2.76 -6.082,1.546 c -15.4,3.918 -22.542,9.813 -30.333,25.07 -7.343,14.38 -12.06,18.304 -26.443,22 -2.474,0.634 -2.96,1.063 -3.357,2.97 -0.256,1.226 -1.506,4.413 -2.778,7.083 -4.424,9.284 -11.966,14.617 -28.73,20.316 -10.84,3.685 -17.518,7.186 -22.422,11.754 -2.435,2.268 -4.543,4.1 -4.685,4.072 -0.142,-0.028 -1.89,-1.7 -3.888,-3.714 z"
     fill="#e3b95f"
     id="path2"
     style="fill:#305cde;fill-opacity:1" />
  <g
     fill="#333"
     fill-rule="evenodd"
     id="g8"
     style="fill:#ffffff;fill-opacity:1"
     transform="translate(-1.1199544e-4,0.002)">
    <path
       d="m 117.17,136.93 17.45,-0.162 1.015,7.487 -22.432,0.252 z m 27.08,-58.353 -46.08,89.72 -23.03,0.203 45.294,-89.57 z"
       id="path4"
       style="fill:#ffffff;fill-opacity:1" />
    <path
       d="m 125.598,114.75 c 5.235,-2.955 19.285,-0.026 25.483,8.38 13.99,20.177 1.323,41.107 20.73,49 -2.31,1.287 -24.542,2.5 -30.885,-15.25 -5.07,-17.136 -1.765,-37.54 -15.33,-42.14 z"
       id="path6"
       style="fill:#ffffff;fill-opacity:1" />
  </g>
</svg>
